<svg xmlns="http://www.w3.org/2000/svg" id="Слой_1" data-name="Слой 1" viewBox="78.44 350.77 843.09 298.49"><defs><style>.cls-1{fill:#0a5c39;}.cls-2{fill:#6b6d6c;}</style></defs><title>1</title><path class="cls-1" d="M299.05,444.16V389h11.32l16.15,42.66L343,389h10.13v55.12h-7.63l-.08-44.81-16,41.12h-7.82L306.1,399.19v45Z"/><path class="cls-1" d="M411.59,441.33a41.79,41.79,0,0,1-18.7,4.21q-13.5,0-20.86-7.53t-7.36-21.37q0-13.81,7.5-21.4t21.15-7.57a81.73,81.73,0,0,1,18.19,2.42v7.33q-11.89-3.9-18.35-3.91-9.44,0-14.59,6.07t-5.17,17.13q0,10.57,5.52,16.65t15.1,6.07q8.19,0,17.57-4.8Z"/><path class="cls-1" d="M431.75,418.69v25.47h-8.22V389h8.22v23.8h.39a7,7,0,0,0,4.89-1.51q1.65-1.5,5.71-8.1l2.47-4,2-3.43a16.16,16.16,0,0,1,4.66-5.26,10.6,10.6,0,0,1,5.87-1.51l1,0v5.74c-.29,0-.5,0-.63,0-2,0-4.15,1.88-6.34,5.63L450.3,403l-1.22,2a55.89,55.89,0,0,1-4.58,7,15.72,15.72,0,0,1-4.07,3.35,15.17,15.17,0,0,1,6.6,3.85q2.37,2.52,5.89,9.37l2,3.83,2.19,4.35q2.08,4.22,4,7.41h-8.72l-.63-1.15-2.54-4.87-3.28-6.4q-5-9.75-10.23-13.05Z"/><path class="cls-1" d="M504.61,418.69v25.47h-8.22V389h8.22v23.8H505a7,7,0,0,0,4.89-1.51q1.65-1.5,5.71-8.1l2.47-4,2-3.43a16.27,16.27,0,0,1,4.66-5.26,10.63,10.63,0,0,1,5.87-1.51l1,0v5.74c-.29,0-.5,0-.63,0-2,0-4.15,1.88-6.34,5.63L523.16,403l-1.22,2a54.76,54.76,0,0,1-4.58,7,15.56,15.56,0,0,1-4.07,3.35,15.17,15.17,0,0,1,6.6,3.85q2.37,2.52,5.89,9.37l2,3.83,2.2,4.35q2.07,4.22,4,7.41h-8.73l-.62-1.15-2.54-4.87-3.29-6.4q-5-9.75-10.23-13.05Z"/><path class="cls-1" d="M537.64,444.16v-6.89q8.42-1.11,11-8.53,2.75-7.71,2.74-36.2V389h33.77v55.12H577V394.78H559.63V396q0,25.1-3,34.11c-1.52,4.57-3.72,7.93-6.63,10.07S543,443.66,537.64,444.16Z"/><path class="cls-1" d="M600.13,444.16V389h8.22v24.62h9.15q.9-12.41,7.18-19.2t16.85-6.79q11.19,0,17.67,7.76t6.47,21.17q0,13.41-6.47,21.17t-17.67,7.77q-10.53,0-16.92-7t-7.11-19.08h-9.15v24.65Zm41.38-4.36a12.88,12.88,0,0,0,11.35-6.16q4.1-6.17,4.09-17t-4.09-17a13.51,13.51,0,0,0-22.67,0q-4.08,6.17-4.08,17t4.08,17A12.88,12.88,0,0,0,641.51,439.8Z"/><path class="cls-1" d="M704.77,444.16V422a30.5,30.5,0,0,1-14.52,3.35q-8.29,0-12.91-4.47a12.29,12.29,0,0,1-3.31-5.22,29.94,29.94,0,0,1-.88-8.34V389h8.22v18c0,4.41.8,7.49,2.4,9.22s4.47,2.6,8.59,2.6a23.89,23.89,0,0,0,12.41-3.31V389H713v55.12Z"/><path class="cls-2" d="M360.54,550.66,347.48,582h5.32l3.51-8.38h12.81l3.46,8.38h6l-12.87-31.35Zm6.83,18.71h-9.32l4.66-11.2Z"/><polygon class="cls-2" points="390.97 554.92 404.27 554.92 404.27 550.66 385.41 550.66 385.41 582.01 390.97 582.01 390.97 554.92"/><polygon class="cls-2" points="431.13 577.75 416.94 577.75 416.94 567.82 428.06 567.82 428.06 563.6 416.94 563.6 416.94 554.92 430.21 554.92 430.21 550.66 411.37 550.66 411.37 582.01 431.13 582.01 431.13 577.75"/><polygon class="cls-2" points="458.44 582.01 464 582.01 464 550.66 458.44 550.66 458.44 563.43 444.34 563.43 444.34 550.66 438.77 550.66 438.77 582.01 444.34 582.01 444.34 567.7 458.44 567.7 458.44 582.01"/><polygon class="cls-2" points="499.11 550.66 470.95 550.66 470.95 554.92 482.25 554.92 482.25 582.01 487.81 582.01 487.81 554.92 499.11 554.92 499.11 550.66"/><path class="cls-2" d="M531,580.25v-4.86l-.76.39a21,21,0,0,1-9.42,2.58,10.21,10.21,0,0,1-7.92-3.17c-1.92-2.11-2.9-5.07-2.9-8.8,0-3.9.92-7,2.72-9.07a9.47,9.47,0,0,1,7.62-3.16,35,35,0,0,1,9.93,2.13l.69.22v-5.17l-.41-.09a45.35,45.35,0,0,0-10.12-1.35c-5.13,0-9.17,1.45-12,4.32s-4.27,6.95-4.27,12.13,1.41,9.28,4.19,12.12,6.77,4.3,11.84,4.3a23.67,23.67,0,0,0,10.52-2.37Z"/><polygon class="cls-2" points="536.35 554.92 547.64 554.92 547.64 582.01 553.21 582.01 553.21 554.92 564.5 554.92 564.5 550.66 536.35 550.66 536.35 554.92"/><path class="cls-2" d="M586.67,581.34a7.53,7.53,0,0,0,3.39-2.37,7.69,7.69,0,0,0,1.85-5.06c0-3.83-2.3-6.61-6.82-8.27a10.73,10.73,0,0,0,3.73-2.78,7.7,7.7,0,0,0,1.82-5,6.13,6.13,0,0,0-2.78-5.39c-1.78-1.2-4.35-1.81-7.62-1.81h-8.79V582h9.91A17.08,17.08,0,0,0,586.67,581.34Zm-.61-7.84a3.63,3.63,0,0,1-2.46,3.69c-.63.25-2.21.55-6.23.55H577v-10h.74a10.27,10.27,0,0,1,6,1.69A4.82,4.82,0,0,1,586.06,573.5Zm-2.87-10.9a8.79,8.79,0,0,1-5.3,1.37H577v-9.05h1.24c6.74,0,6.74,2.93,6.74,3.9A4.37,4.37,0,0,1,583.19,562.6Z"/><path class="cls-2" d="M613.86,549.9a14.66,14.66,0,0,0-11.21,4.5c-2.79,3-4.2,7-4.2,11.93s1.41,9,4.2,11.94a16.23,16.23,0,0,0,22.43,0c2.78-3,4.19-7,4.19-11.94s-1.41-9-4.19-11.93A14.69,14.69,0,0,0,613.86,549.9Zm0,28.6a8.35,8.35,0,0,1-7-3.17c-1.7-2.14-2.56-5.18-2.56-9s.86-6.85,2.56-9a9.38,9.38,0,0,1,14,0c1.7,2.13,2.56,5.15,2.56,9s-.86,6.9-2.56,9A8.35,8.35,0,0,1,613.86,578.5Z"/><polygon class="cls-2" points="303.49 613.75 289.4 613.75 289.4 600.97 283.83 600.97 283.83 632.32 289.4 632.32 289.4 618.01 303.49 618.01 303.49 632.32 309.06 632.32 309.06 600.97 303.49 600.97 303.49 613.75"/><polygon class="cls-2" points="325.3 618.13 336.42 618.13 336.42 613.91 325.3 613.91 325.3 605.24 338.57 605.24 338.57 600.97 319.73 600.97 319.73 632.32 339.5 632.32 339.5 628.06 325.3 628.06 325.3 618.13"/><path class="cls-2" d="M371.94,601H353.5v3.33a50.7,50.7,0,0,1-1.39,12.9,36.39,36.39,0,0,1-4.73,10.29h-2.76V638.9h5.44v-6.58h20.83v6.58h5.43V627.49h-4.38Zm-5.57,4.21v22.31H353.76c3.52-6.2,5.31-13.7,5.31-22.31Z"/><path class="cls-2" d="M397.88,616a10.75,10.75,0,0,0,3.73-2.79,7.61,7.61,0,0,0,1.82-5,6.15,6.15,0,0,0-2.78-5.39c-1.78-1.2-4.34-1.81-7.62-1.81h-8.79v31.35h9.91a17.12,17.12,0,0,0,5.31-.66,7.53,7.53,0,0,0,3.39-2.37,7.7,7.7,0,0,0,1.85-5.07C404.7,620.39,402.4,617.62,397.88,616ZM391,605.24c6.74,0,6.74,2.93,6.74,3.9a4.37,4.37,0,0,1-1.76,3.77,8.81,8.81,0,0,1-5.3,1.37h-.92v-9Zm-1.24,12.81h.74a10.2,10.2,0,0,1,6,1.7,4.79,4.79,0,0,1,2.31,4.06,3.65,3.65,0,0,1-2.46,3.7c-.63.25-2.21.55-6.22.55h-.4Z"/><polygon class="cls-2" points="418.68 623.81 418.68 600.97 413.11 600.97 413.11 632.32 418.44 632.32 433.01 609.49 433.01 632.32 438.58 632.32 438.58 600.97 433.25 600.97 418.68 623.81"/><path class="cls-2" d="M478.13,625.35l-1-2.29a21.18,21.18,0,0,0-3-5.34,7.55,7.55,0,0,0-2.82-2,6.1,6.1,0,0,0,1.19-1.19,29.15,29.15,0,0,0,2.22-3.86l.8-1.59a14.43,14.43,0,0,1,2-3.29,2.23,2.23,0,0,1,1.68-.62h.52V601l-1,0a6,6,0,0,0-4,1.43,17.22,17.22,0,0,0-3.45,5l-.67,1.31c-.18.37-.47.92-.86,1.66a11.15,11.15,0,0,1-1.9,2.92,3.19,3.19,0,0,1-1.49.71V601H461v13a2.71,2.71,0,0,1-1.41-.62,12.56,12.56,0,0,1-2-3.06l-1.53-3a17.43,17.43,0,0,0-3.44-5,6,6,0,0,0-4.08-1.43h0l-1,0v4.18h.53a2.23,2.23,0,0,1,1.67.62,14.11,14.11,0,0,1,2,3.28l.8,1.6a30.35,30.35,0,0,0,2.22,3.86,6.7,6.7,0,0,0,1.19,1.19,7.63,7.63,0,0,0-2.82,2,20.75,20.75,0,0,0-3,5.33l-1,2.3c-.69,1.61-1.48,3.36-2.34,5.2l-.82,1.77h5.78l.14-.3c.23-.51.65-1.53,1.26-3a71,71,0,0,1,3.81-8.29,6.44,6.44,0,0,1,2.77-2.63H461v14.27h5.31V618.05h1a6.48,6.48,0,0,1,1.75.93,6.78,6.78,0,0,1,1.26,1.7,71.09,71.09,0,0,1,3.78,8.29c.61,1.49,1,2.51,1.28,3l.14.3h5.78l-.82-1.77C479.64,628.72,478.85,627,478.13,625.35Z"/><polygon class="cls-2" points="494.35 623.81 494.35 600.97 488.79 600.97 488.79 632.32 494.12 632.32 508.69 609.49 508.69 632.32 514.25 632.32 514.25 600.97 508.92 600.97 494.35 623.81"/><polygon class="cls-2" points="540.58 623.49 532.06 600.97 524.95 600.97 524.95 632.32 529.87 632.32 529.87 609.95 537.55 630.3 542.57 630.3 550.47 609.95 550.5 632.32 555.75 632.32 555.75 600.97 549.29 600.97 540.58 623.49"/><path class="cls-2" d="M580,600.22a14.69,14.69,0,0,0-11.21,4.49c-2.79,3-4.2,7-4.2,11.94s1.41,9,4.2,11.94a16.25,16.25,0,0,0,22.43,0c2.78-3,4.19-7,4.19-11.94s-1.41-9-4.19-11.94A14.72,14.72,0,0,0,580,600.22Zm0,28.6a8.37,8.37,0,0,1-7-3.17c-1.7-2.14-2.56-5.18-2.56-9s.86-6.85,2.56-9a9.38,9.38,0,0,1,14,0c1.7,2.13,2.55,5.15,2.55,9s-.85,6.9-2.55,9A8.37,8.37,0,0,1,580,628.82Z"/><path class="cls-2" d="M619,628.68a10.22,10.22,0,0,1-7.92-3.17c-1.92-2.12-2.89-5.08-2.89-8.8,0-3.91.91-7,2.71-9.08a9.51,9.51,0,0,1,7.62-3.15,34.75,34.75,0,0,1,9.93,2.12l.69.23v-5.17l-.4-.1a46,46,0,0,0-10.13-1.34c-5.13,0-9.17,1.45-12,4.32s-4.27,6.94-4.27,12.13,1.41,9.27,4.19,12.12,6.78,4.29,11.85,4.29a23.66,23.66,0,0,0,10.51-2.37l.29-.14V625.7l-.76.39A21,21,0,0,1,619,628.68Z"/><polygon class="cls-2" points="634.46 605.24 645.75 605.24 645.75 632.32 651.32 632.32 651.32 605.24 662.61 605.24 662.61 600.97 634.46 600.97 634.46 605.24"/><polygon class="cls-2" points="689.7 600.97 675.13 623.81 675.13 600.97 669.57 600.97 669.57 632.32 674.9 632.32 689.47 609.49 689.47 632.32 695.03 632.32 695.03 600.97 689.7 600.97"/><path class="cls-1" d="M234.91,412.28a153.17,153.17,0,0,0-23.71-39.73c-22.54-27.09-68-30.74-92-.55-5.56,7-11.2,14.18-15.58,21.95-18.3,32.54-24.3,68.12-25.18,109.61.67,7.59,1.07,19.9,2.94,32,5.49,35.66,15.8,69.46,42.64,95.56,22.26,21.64,48,24.21,73.17,6.14a92.54,92.54,0,0,0,24.88-26.5,208.43,208.43,0,0,0,23.19-55.51A252.55,252.55,0,0,0,252.44,514c1.61-18.43-.11-36.88-3.9-54.95C245.23,443.29,241.08,427.25,234.91,412.28ZM196.57,619.52l-32.5-6.29-32.49,6.29V550.29c6.87,1.91,17.42,2.43,32.57-2.47h-.08a48.12,48.12,0,0,1-32.49-12.58c-.82-.74-1.6-1.51-2.35-2.31a48.21,48.21,0,0,1,2.35-69.08v-67l32.49,6.29,32.5-6.29v54.63c-6.23-1.78-15.16-2.52-27.51.08a48.23,48.23,0,0,1,27.51,12.33,47.46,47.46,0,0,1,4.29,4.45,46.92,46.92,0,0,1,6.52,9.95,48.25,48.25,0,0,1,.42,41.7,48.27,48.27,0,0,1-11.23,15.29Zm-7.63-255.08H139.21C151.89,353.66,169.35,352.86,188.94,364.44ZM231.54,570V433.93A354.56,354.56,0,0,1,231.54,570Z"/><path class="cls-1" d="M258.81,521H271.4V481.36H258.81Z"/><path class="cls-1" d="M902.06,480.25H884.22v-89.2h13.41v-10.4H882.75c-24.08,5.85-40.27,27.62-46.19,36.84h-20c-5.92-9.22-22.12-31-46.2-36.84H755.49v10.4H768.9v89.2H757.81a19.2,19.2,0,0,0-37.94,0h-8a19.2,19.2,0,0,0-37.94,0H361.77v43.31H674a19.22,19.22,0,0,0,19,16.24h0a19.22,19.22,0,0,0,19-16.24h8a19.22,19.22,0,0,0,19,16.24h0a19.22,19.22,0,0,0,19-16.24H768.9v89.19H755.49v10.41h14.88c24.08-5.85,40.28-27.63,46.2-36.85h20c5.92,9.22,22.11,31,46.19,36.85h14.88V612.75H884.22V523.56h17.84a19.47,19.47,0,0,0,19.47-19.47v-4.38A19.47,19.47,0,0,0,902.06,480.25Zm-83-33h15v33h-15Zm15,109.31h-15v-33h15Z"/><path class="cls-1" d="M329.28,469.17H302.11A32.63,32.63,0,0,0,279,478.76c-.57.57-1.12,1.17-1.65,1.79v42.71a32.65,32.65,0,0,0,24.8,11.37h27.17a32.69,32.69,0,0,0,26-12.84V482A32.7,32.7,0,0,0,329.28,469.17Z"/></svg>